<?xml version="1.0" encoding="utf-8"?>
<!-- Generator: Adobe Illustrator 22.0.1, SVG Export Plug-In . SVG Version: 6.00 Build 0)  -->
<svg version="1.1" id="Capa_1" xmlns="http://www.w3.org/2000/svg" xmlns:xlink="http://www.w3.org/1999/xlink" x="0px" y="0px"
	 viewBox="0 0 480 480" style="enable-background:new 0 0 480 480;" xml:space="preserve">
<style type="text/css">
	.st0{fill:#E5E5E5;}
</style>
<g>
	<g>
		<path class="st0" d="M250.7,475.9l160-144c3.4-3.1,5.3-7.4,5.3-11.9v-96c0-6.3-3.7-12-9.5-14.6c-5.8-2.6-12.5-1.5-17.2,2.7
			L240,346.5L90.7,212.1c-4.7-4.2-11.5-5.3-17.2-2.7C67.7,212,64,217.7,64,224v96c0,4.5,2,8.8,5.3,11.9l160,144
			C235.3,481.4,244.6,481.4,250.7,475.9z"/>
	</g>
</g>
<g>
	<g>
		<path class="st0" d="M250.7,267.9l160-144c3.4-3.1,5.3-7.4,5.3-11.9V16c0-6.3-3.7-12-9.5-14.6c-5.8-2.6-12.5-1.5-17.2,2.7
			L240,138.5L90.7,4.1C86-0.1,79.2-1.2,73.5,1.4C67.7,4,64,9.7,64,16v96c0,4.5,2,8.8,5.3,11.9l160,144
			C235.3,273.4,244.6,273.4,250.7,267.9z"/>
	</g>
</g>
</svg>
