<svg viewBox="0 0 371 627" fill="none" xmlns="http://www.w3.org/2000/svg">
<path d="M59.8608 133.072C67.6782 133.087 75.4157 134.645 82.63 137.656C89.8442 140.667 96.3935 145.072 101.902 150.619C102.049 163.555 102.107 177.339 102.068 191.647C102.026 206.761 101.878 221.289 101.637 234.852C94.6905 241.748 86.1512 246.824 76.7749 249.632C67.3986 252.44 57.4746 252.893 47.8815 250.95C38.2884 249.008 29.3223 244.73 21.777 238.496C14.2317 232.261 8.33991 224.262 4.62339 215.208C0.906864 206.153 -0.519763 196.322 0.469813 186.584C1.45939 176.847 4.83462 167.503 10.2967 159.381C15.7588 151.259 23.1392 144.609 31.7845 140.02C40.4297 135.431 50.0731 133.045 59.8608 133.072V133.072Z" fill="#095256"/>
<path d="M25.7067 192.572L62.626 209.926L62.6533 200.068L93.9993 200.155L94.0403 185.368L62.6943 185.281L62.7216 175.424L25.7067 192.572Z" fill="white"/>
<rect x="95" width="276" height="627" rx="23" fill="#095256"/>
</svg>
